<?xml version="1.0" standalone="no"?><!DOCTYPE svg PUBLIC "-//W3C//DTD SVG 1.1//EN" "http://www.w3.org/Graphics/SVG/1.1/DTD/svg11.dtd"><svg t="1546590182779" class="icon" style="" viewBox="0 0 1024 1024" version="1.1" xmlns="http://www.w3.org/2000/svg" p-id="2013" data-spm-anchor-id="a313x.7781069.0.i4" xmlns:xlink="http://www.w3.org/1999/xlink" width="32" height="32"><defs><style type="text/css"></style></defs><path d="M668 252H200c-57.44 0-104 46.56-104 104V824c0 57.44 46.56 104 104 104h468c57.44 0 104-46.56 104-104V356c0-57.44-46.56-104-104-104zM720 824c0 28.64-23.36 52-52 52H200c-28.64 0-52-23.36-52-52V356c0-28.64 23.36-52 52-52h468c28.64 0 52 23.36 52 52V824z" p-id="2014" fill="#bfbfbf"></path><path d="M252 460H616V408H252v52zM252 564H616V512H252v52zM252 668H616V616H252v52zM252 772h208V720h-208v52z" p-id="2015" fill="#bfbfbf"></path><path d="M824 96H356c-57.44 0-104 46.56-104 104H304c0-28.64 23.36-52 52-52H824c28.64 0 52 23.36 52 52v468c0 28.64-23.36 52-52 52v52c57.44 0 104-46.56 104-104V200c0-57.44-46.56-104-104-104z" p-id="2016" fill="#bfbfbf"></path></svg>